<?xml version="1.0" encoding="utf-8"?>
<!-- Generator: Adobe Illustrator 24.3.0, SVG Export Plug-In . SVG Version: 6.00 Build 0)  -->
<svg version="1.1" xmlns="http://www.w3.org/2000/svg" xmlns:xlink="http://www.w3.org/1999/xlink" x="0px" y="0px"
	 viewBox="0 0 100 68.5" style="enable-background:new 0 0 100 68.5;" xml:space="preserve">
<style type="text/css">
	.st0{fill:#EB6864;}
	.st1{opacity:0.5;fill:#FFFFFF;}
	.st2{fill:none;stroke:#000000;stroke-width:0.25;stroke-miterlimit:10;}
	.st3{fill:none;stroke:#58595B;stroke-width:0.25;stroke-miterlimit:10;}
	.st4{stroke:#000000;stroke-width:0.25;stroke-miterlimit:10;}
	.st5{fill:#FFFFFF;}
</style>
<g id="Layer_1">
</g>
<g id="Raccoon2">
	<g id="Base">
		<path class="st0" d="M100,56.35v0.02c-6.74,2.77-13.74,5.02-20.93,6.66c-3.86,0.87-7.8,1.58-11.78,2.1
			c-0.71,0.11-1.41,0.19-2.14,0.28c0,0,0,0-0.02,0c-0.45,0.06-0.88,0.11-1.33,0.15c-2.65,0.28-5.31,0.48-8,0.61
			c-0.47,0.02-0.92,0.04-1.39,0.06c-0.02,0-0.02,0-0.02,0h-0.51c-0.02,0.06-0.06,0.13-0.1,0.17c-0.9,1.25-2.29,2.06-3.84,2.06
			c-1.55,0-2.94-0.8-3.84-2.06c-0.04-0.04-0.08-0.11-0.1-0.17h-0.49c0,0,0,0-0.02,0c0,0,0,0-0.02,0c-0.47-0.02-0.92-0.04-1.39-0.06
			c-2.68-0.13-5.35-0.32-8-0.61c-0.45-0.04-0.88-0.09-1.33-0.15c-0.02,0-0.02,0-0.02,0c-0.73-0.09-1.43-0.17-2.14-0.28
			c-3.98-0.52-7.92-1.23-11.78-2.1c-7.17-1.64-14.15-3.87-20.87-6.66c0,0,0-0.02,0.02-0.04c4.23-10.41,11.17-19.53,20.3-26
			c-0.92-5.62-1.39-11.42-1.39-17.33c0-4.33,0.25-8.57,0.74-12.72V0.17c0.02,0,0.02,0,0.02,0c2.47,1.49,4.86,3.09,7.17,4.8
			c4.68,3.5,9.05,7.49,13.05,11.9c1.23,1.36,2.45,2.79,3.61,4.24c4.33-0.58,8.68-0.56,12.93,0c1.16-1.45,2.37-2.88,3.61-4.24
			c4-4.41,8.37-8.39,13.05-11.9c2.16-1.6,4.37-3.09,6.64-4.48c0.18-0.17,0.33-0.32,0.51-0.5c0.02,0.04,0.02,0.11,0.02,0.17
			c0.51,4.2,0.76,8.48,0.76,12.83c0,5.91-0.47,11.68-1.39,17.31c6.64,4.67,12.42,10.99,16.79,18.71c1.2,2.06,2.27,4.24,3.23,6.51
			C99.76,55.81,99.88,56.07,100,56.35z"/>
	</g>
	<g id="Fill">
		<path class="st1" d="M46.01,66.24h-0.49c0,0,0,0-0.02,0c0,0,0,0-0.02,0c-0.47-0.02-0.92-0.04-1.39-0.06
			c-2.68-0.13-5.35-0.32-8-0.61c-0.45-0.04-0.88-0.09-1.33-0.15c-0.02,0-0.02,0-0.02,0c-0.73-0.09-1.43-0.17-2.14-0.28
			c-3.98-0.52-7.92-1.23-11.78-2.1c-7.17-1.64-14.15-3.87-20.87-6.66c0,0,0-0.02,0.02-0.04c1-0.19,2.02-0.37,3.04-0.52
			c4.41-0.65,8.8-0.93,13.11-0.84c1.59,0.02,3.17,0.11,4.74,0.22c2.39,0.17,4.76,0.45,7.09,0.87c0.18,0.02,0.35,0.04,0.53,0.09
			c3.14,0.54,6.21,1.28,9.25,2.18c0.08,0.02,0.14,0.04,0.22,0.06c1.31,0.39,2.63,0.82,3.92,1.3c1.18,0.41,2.37,0.87,3.53,1.36
			c-0.24,0.63-0.35,1.3-0.35,2.01c0,0.13,0,0.24,0.02,0.37c0.04,0.69,0.2,1.34,0.45,1.95c0.1,0.22,0.2,0.43,0.31,0.63
			C45.85,66.02,45.95,66.18,46.01,66.24z"/>
		<path class="st2" d="M81.01,13c0,5.91-0.47,11.68-1.39,17.31c-2-1.43-4.06-2.68-6.19-3.79c-0.31-0.15-0.61-0.3-0.92-0.45
			c-0.16-0.09-0.31-0.15-0.49-0.22c-2.92-1.47-5.96-2.6-9.07-3.42c-2.14-0.61-4.33-1.04-6.53-1.32c1.16-1.45,2.37-2.88,3.61-4.24
			c4-4.41,8.37-8.39,13.05-11.9c2.16-1.6,4.37-3.09,6.64-4.48c0.18-0.17,0.33-0.32,0.51-0.5c0.02,0.04,0.02,0.11,0.02,0.17
			C80.76,4.37,81.01,8.66,81.01,13z"/>
		<path class="st2" d="M43.48,21.12c-5.27,0.67-10.54,2.25-15.62,4.74c-0.16,0.06-0.31,0.13-0.47,0.22
			c-0.31,0.15-0.61,0.3-0.92,0.45c-0.29,0.15-0.59,0.32-0.88,0.5c-0.33,0.17-0.67,0.35-1,0.54c-1.49,0.84-2.92,1.77-4.31,2.77
			c-0.92-5.62-1.39-11.42-1.39-17.33c0-4.33,0.25-8.57,0.74-12.72c0-0.04,0-0.09,0.02-0.11c2.47,1.49,4.86,3.09,7.17,4.8
			c4.68,3.5,9.05,7.49,13.05,11.9C41.11,18.24,42.32,19.67,43.48,21.12z"/>
		<path class="st1" d="M43.48,21.12c-5.27,0.67-10.54,2.25-15.62,4.74c-0.16,0.06-0.31,0.13-0.47,0.22
			c-0.31,0.15-0.61,0.3-0.92,0.45c-0.29,0.15-0.59,0.32-0.88,0.5c-0.33,0.17-0.67,0.35-1,0.54c-1.35-4.22-2.47-8.57-3.29-13.04
			c-0.86-4.63-1.43-9.39-1.67-14.23V0.18c0.02,0,0.02,0,0.02,0c2.47,1.49,4.86,3.09,7.17,4.8c4.68,3.5,9.05,7.49,13.05,11.9
			C41.11,18.24,42.32,19.67,43.48,21.12z"/>
		<path class="st1" d="M100,56.36v0.02c-6.74,2.77-13.74,5.02-20.93,6.66c-3.86,0.87-7.8,1.58-11.78,2.1
			c-0.71,0.11-1.41,0.19-2.14,0.28c0,0,0,0-0.02,0c-0.45,0.06-0.88,0.11-1.33,0.15c-2.65,0.28-5.31,0.48-8,0.61
			c-0.47,0.02-0.92,0.04-1.39,0.06c-0.02,0-0.02,0-0.02,0h-0.51c0.07-0.08,0.14-0.17,0.14-0.17c0.14-0.22,0.25-0.45,0.35-0.69
			c0.29-0.69,0.47-1.49,0.47-2.31c0-0.71-0.12-1.38-0.35-2.01c2.43-1.02,4.92-1.9,7.45-2.66c0.08-0.02,0.14-0.04,0.22-0.06
			c3.04-0.91,6.09-1.62,9.23-2.16h0.02c0.18-0.04,0.35-0.09,0.53-0.09c2.33-0.41,4.7-0.69,7.09-0.89c1.57-0.13,3.16-0.19,4.74-0.19
			c4.31-0.09,8.7,0.19,13.11,0.84C97.92,55.99,98.96,56.16,100,56.36z"/>
		<path class="st1" d="M81.01,13c0,5.91-0.47,11.68-1.39,17.31c-2-1.43-4.06-2.68-6.19-3.79c-0.31-0.15-0.61-0.3-0.92-0.45
			c-0.16-0.09-0.31-0.15-0.49-0.22c-2.92-1.47-5.96-2.6-9.07-3.42c1.43-2.57,2.98-5.06,4.62-7.46C70.98,10,74.8,5.39,78.99,1.21
			c0.24-0.24,0.47-0.48,0.73-0.71c0.18-0.17,0.33-0.32,0.51-0.5c0.02,0.04,0.02,0.11,0.02,0.17C80.76,4.37,81.01,8.66,81.01,13z"/>
		<path class="st1" d="M85.07,47.01c0,0.39,0,0.78-0.02,1.17c-0.02,0.37-0.04,0.76-0.08,1.15c-0.02,0.13-0.02,0.26-0.04,0.39
			c-0.04,0.26-0.06,0.5-0.1,0.74c-0.04,0.39-0.1,0.76-0.18,1.12c-0.06,0.37-0.14,0.74-0.24,1.1c-0.08,0.37-0.18,0.71-0.27,1.08
			c-0.1,0.35-0.2,0.69-0.31,1.06c-0.02,0.06-0.04,0.11-0.06,0.17c-1.59,0-3.17,0.06-4.74,0.19c-2.39,0.19-4.76,0.48-7.09,0.89
			c-0.18,0-0.35,0.04-0.53,0.09c0.2-0.97,0.29-1.99,0.29-3.05c0-0.15,0-0.3-0.02-0.45c-0.2-7.55-5.82-13.61-12.72-13.61
			c-1.25,0-2.47,0.19-3.63,0.58c-0.04,0-0.08,0.02-0.12,0.02c-0.1,0.04-0.22,0.09-0.31,0.13c-1.88,0.69-3.59,1.86-4.96,3.37
			c-1.37-1.51-3.08-2.68-4.96-3.37c-0.1-0.04-0.22-0.09-0.31-0.13c-1.2-0.39-2.45-0.61-3.74-0.61c-3.78,0-7.19,1.82-9.5,4.72
			c-2.02,2.49-3.23,5.75-3.23,9.35c0,1.04,0.1,2.06,0.29,3.03c-0.18-0.04-0.35-0.06-0.53-0.09c-2.33-0.41-4.7-0.69-7.09-0.87
			c-1.57-0.11-3.16-0.19-4.74-0.22c-0.02-0.04-0.04-0.11-0.06-0.15c-0.12-0.37-0.22-0.71-0.31-1.06c-0.1-0.37-0.2-0.71-0.27-1.08
			c-0.1-0.37-0.18-0.74-0.24-1.1c-0.08-0.37-0.14-0.74-0.18-1.12c-0.06-0.37-0.1-0.74-0.14-1.12c-0.04-0.39-0.06-0.78-0.08-1.15
			c-0.02-0.39-0.02-0.78-0.02-1.17c0-0.41,0-0.8,0.02-1.17c0.02-0.39,0.04-0.78,0.08-1.17c0.04-0.37,0.08-0.76,0.14-1.12
			c0.04-0.39,0.1-0.76,0.18-1.12c0.06-0.37,0.14-0.74,0.24-1.1c0.08-0.37,0.18-0.71,0.27-1.08c0.1-0.35,0.2-0.69,0.31-1.04
			c0.12-0.37,0.24-0.69,0.37-1.04c0.14-0.35,0.27-0.67,0.41-1.02c0.14-0.32,0.29-0.65,0.45-0.97c0.16-0.32,0.33-0.63,0.51-0.95
			c0.16-0.3,0.33-0.63,0.53-0.93c0.18-0.28,0.37-0.58,0.57-0.89c0.2-0.28,0.41-0.56,0.61-0.84c0.22-0.28,0.43-0.56,0.65-0.82
			c0.1-0.13,0.2-0.24,0.29-0.35c0.14-0.15,0.25-0.3,0.39-0.45c0.24-0.26,0.47-0.5,0.73-0.76c0.24-0.24,0.49-0.48,0.74-0.71
			c0.25-0.22,0.51-0.45,0.76-0.67c0.27-0.22,0.55-0.43,0.8-0.63c0.24-0.19,0.51-0.37,0.74-0.52c0.04-0.02,0.06-0.04,0.1-0.06
			c0.29-0.19,0.57-0.39,0.86-0.56c0.29-0.17,0.59-0.35,0.88-0.5c0.31-0.15,0.61-0.3,0.92-0.45c0.16-0.09,0.31-0.15,0.47-0.22
			c0.14-0.06,0.29-0.13,0.47-0.19c0.31-0.13,0.63-0.24,0.94-0.35c0.33-0.11,0.65-0.22,0.98-0.3c0.33-0.11,0.67-0.19,1-0.26
			c0.33-0.09,0.67-0.15,1.02-0.19c0.33-0.06,0.69-0.11,1.02-0.15c0.35-0.04,0.71-0.06,1.06-0.09c0.33-0.02,0.69-0.02,1.06-0.02
			c0.35,0,0.71,0,1.06,0.02c0.33,0.02,0.69,0.04,1.04,0.09c0.35,0.04,0.69,0.09,1.02,0.15c0.35,0.04,0.69,0.11,1.02,0.19
			c0.33,0.06,0.67,0.15,1,0.26c0.33,0.09,0.65,0.19,0.98,0.3c0.31,0.11,0.63,0.22,0.96,0.35c0.31,0.13,0.63,0.26,0.92,0.41
			c0.31,0.15,0.61,0.3,0.92,0.45c0.29,0.15,0.59,0.32,0.88,0.5c0.29,0.17,0.59,0.37,0.86,0.56c0.27,0.17,0.57,0.37,0.84,0.58
			c0.27,0.19,0.53,0.41,0.8,0.63c0.25,0.22,0.51,0.45,0.76,0.67c0.25,0.24,0.51,0.48,0.76,0.71c0.14,0.15,0.29,0.3,0.43,0.45
			c0.1,0.11,0.18,0.19,0.27,0.3c0.1-0.11,0.18-0.19,0.27-0.3c0.14-0.15,0.29-0.3,0.43-0.45c0.25-0.24,0.51-0.48,0.76-0.71
			c0.25-0.22,0.51-0.45,0.76-0.67c0.27-0.22,0.53-0.43,0.8-0.63c0.27-0.22,0.57-0.41,0.84-0.58c0.27-0.19,0.57-0.39,0.86-0.56
			c0.29-0.17,0.59-0.35,0.88-0.5c0.31-0.15,0.61-0.3,0.92-0.45c0.29-0.15,0.61-0.28,0.92-0.41c0.33-0.13,0.65-0.24,0.96-0.35
			c0.33-0.11,0.65-0.22,0.98-0.3c0.33-0.11,0.67-0.19,1-0.26c0.33-0.09,0.67-0.15,1.02-0.19c0.16-0.02,0.29-0.04,0.45-0.06
			c0.18-0.04,0.37-0.06,0.57-0.09c0.35-0.04,0.71-0.06,1.04-0.09c0.35-0.02,0.71-0.02,1.06-0.02c0.37,0,0.73,0,1.06,0.02
			c0.35,0.02,0.71,0.04,1.06,0.09c0.33,0.04,0.69,0.09,1.02,0.15c0.35,0.04,0.69,0.11,1.02,0.19c0.33,0.06,0.67,0.15,1,0.26
			c0.33,0.09,0.65,0.19,0.98,0.3c0.31,0.11,0.63,0.22,0.94,0.35c0.16,0.06,0.31,0.13,0.45,0.19c0.18,0.06,0.33,0.13,0.49,0.22
			c0.31,0.15,0.61,0.3,0.92,0.45c0.29,0.15,0.59,0.32,0.88,0.5c0.29,0.17,0.57,0.37,0.86,0.56c0.27,0.17,0.57,0.37,0.84,0.58
			c0.25,0.19,0.53,0.41,0.8,0.63c0.25,0.22,0.51,0.45,0.76,0.67c0.25,0.24,0.51,0.48,0.74,0.71c0.25,0.26,0.49,0.5,0.73,0.76
			c0.14,0.15,0.25,0.3,0.39,0.45c0.1,0.11,0.2,0.22,0.29,0.35c0.22,0.26,0.43,0.54,0.65,0.82c0.2,0.28,0.41,0.56,0.61,0.84
			c0.2,0.3,0.39,0.61,0.57,0.89c0.2,0.3,0.37,0.63,0.53,0.93c0.18,0.32,0.35,0.63,0.51,0.95c0.16,0.32,0.31,0.65,0.45,0.97
			c0.14,0.35,0.27,0.67,0.41,1.02c0.14,0.35,0.25,0.67,0.37,1.04c0.12,0.35,0.22,0.69,0.31,1.04c0.1,0.37,0.2,0.71,0.27,1.08
			c0.1,0.37,0.18,0.74,0.24,1.1c0.08,0.37,0.14,0.74,0.18,1.12c0.06,0.37,0.1,0.76,0.14,1.12c0.04,0.39,0.06,0.78,0.08,1.17
			C85.07,46.21,85.07,46.6,85.07,47.01z"/>
	</g>
	<g id="Outline">
		<path class="st3" d="M46.01,66.24h-0.49c0,0,0,0-0.02,0c0,0,0,0-0.02,0c-0.47-0.02-0.92-0.04-1.39-0.06
			c-2.68-0.13-5.35-0.32-8-0.61c-0.45-0.04-0.88-0.09-1.33-0.15c-0.02,0-0.02,0-0.02,0c-0.73-0.09-1.43-0.17-2.14-0.28
			c-3.98-0.52-7.92-1.23-11.78-2.1c-7.17-1.64-14.15-3.87-20.87-6.66c0,0,0-0.02,0.02-0.04c1-0.19,2.02-0.37,3.04-0.52
			c4.41-0.65,8.8-0.93,13.11-0.84c1.59,0.02,3.17,0.11,4.74,0.22c2.39,0.17,4.76,0.45,7.09,0.87c0.18,0.02,0.35,0.04,0.53,0.09
			c3.14,0.54,6.21,1.28,9.25,2.18c0.08,0.02,0.14,0.04,0.22,0.06c1.31,0.39,2.63,0.82,3.92,1.3c1.18,0.41,2.37,0.87,3.53,1.36
			c-0.24,0.63-0.35,1.3-0.35,2.01c0,0.13,0,0.24,0.02,0.37c0.04,0.69,0.2,1.34,0.45,1.95c0.1,0.22,0.2,0.43,0.31,0.63
			C45.85,66.02,45.95,66.18,46.01,66.24z"/>
		<path class="st3" d="M81.01,13c0,5.91-0.47,11.68-1.39,17.31c-2-1.43-4.06-2.68-6.19-3.79c-0.31-0.15-0.61-0.3-0.92-0.45
			c-0.16-0.09-0.31-0.15-0.49-0.22c-2.92-1.47-5.96-2.6-9.07-3.42c-2.14-0.61-4.33-1.04-6.53-1.32c1.16-1.45,2.37-2.88,3.61-4.24
			c4-4.41,8.37-8.39,13.05-11.9c2.16-1.6,4.37-3.09,6.64-4.48c0.18-0.17,0.33-0.32,0.51-0.5c0.02,0.04,0.02,0.11,0.02,0.17
			C80.76,4.37,81.01,8.66,81.01,13z"/>
		<path class="st3" d="M43.48,21.12c-5.27,0.67-10.54,2.25-15.62,4.74c-0.16,0.06-0.31,0.13-0.47,0.22
			c-0.31,0.15-0.61,0.3-0.92,0.45c-0.29,0.15-0.59,0.32-0.88,0.5c-0.33,0.17-0.67,0.35-1,0.54c-1.49,0.84-2.92,1.77-4.31,2.77
			c-0.92-5.62-1.39-11.42-1.39-17.33c0-4.33,0.25-8.57,0.74-12.72c0-0.04,0-0.09,0.02-0.11c2.47,1.49,4.86,3.09,7.17,4.8
			c4.68,3.5,9.05,7.49,13.05,11.9C41.11,18.24,42.32,19.67,43.48,21.12z"/>
		<path class="st3" d="M43.48,21.12c-5.27,0.67-10.54,2.25-15.62,4.74c-0.16,0.06-0.31,0.13-0.47,0.22
			c-0.31,0.15-0.61,0.3-0.92,0.45c-0.29,0.15-0.59,0.32-0.88,0.5c-0.33,0.17-0.67,0.35-1,0.54c-1.35-4.22-2.47-8.57-3.29-13.04
			c-0.86-4.63-1.43-9.39-1.67-14.23V0.18c0.02,0,0.02,0,0.02,0c2.47,1.49,4.86,3.09,7.17,4.8c4.68,3.5,9.05,7.49,13.05,11.9
			C41.11,18.24,42.32,19.67,43.48,21.12z"/>
		<path class="st3" d="M100,56.36v0.02c-6.74,2.77-13.74,5.02-20.93,6.66c-3.86,0.87-7.8,1.58-11.78,2.1
			c-0.71,0.11-1.41,0.19-2.14,0.28c0,0,0,0-0.02,0c-0.45,0.06-0.88,0.11-1.33,0.15c-2.65,0.28-5.31,0.48-8,0.61
			c-0.47,0.02-0.92,0.04-1.39,0.06c-0.02,0-0.02,0-0.02,0h-0.51c0.07-0.08,0.14-0.17,0.14-0.17c0.14-0.22,0.25-0.45,0.35-0.69
			c0.29-0.69,0.47-1.49,0.47-2.31c0-0.71-0.12-1.38-0.35-2.01c2.43-1.02,4.92-1.9,7.45-2.66c0.08-0.02,0.14-0.04,0.22-0.06
			c3.04-0.91,6.09-1.62,9.23-2.16h0.02c0.18-0.04,0.35-0.09,0.53-0.09c2.33-0.41,4.7-0.69,7.09-0.89c1.57-0.13,3.16-0.19,4.74-0.19
			c4.31-0.09,8.7,0.19,13.11,0.84C97.92,55.99,98.96,56.16,100,56.36z"/>
		<path class="st3" d="M81.01,13c0,5.91-0.47,11.68-1.39,17.31c-2-1.43-4.06-2.68-6.19-3.79c-0.31-0.15-0.61-0.3-0.92-0.45
			c-0.16-0.09-0.31-0.15-0.49-0.22c-2.92-1.47-5.96-2.6-9.07-3.42c1.43-2.57,2.98-5.06,4.62-7.46C70.98,10,74.8,5.39,78.99,1.21
			c0.24-0.24,0.47-0.48,0.73-0.71c0.18-0.17,0.33-0.32,0.51-0.5c0.02,0.04,0.02,0.11,0.02,0.17C80.76,4.37,81.01,8.66,81.01,13z"/>
		<path class="st3" d="M85.07,47.01c0,0.39,0,0.78-0.02,1.17c-0.02,0.37-0.04,0.76-0.08,1.15c-0.02,0.13-0.02,0.26-0.04,0.39
			c-0.04,0.26-0.06,0.5-0.1,0.74c-0.04,0.39-0.1,0.76-0.18,1.12c-0.06,0.37-0.14,0.74-0.24,1.1c-0.08,0.37-0.18,0.71-0.27,1.08
			c-0.1,0.35-0.2,0.69-0.31,1.06c-0.02,0.06-0.04,0.11-0.06,0.17c-1.59,0-3.17,0.06-4.74,0.19c-2.39,0.19-4.76,0.48-7.09,0.89
			c-0.18,0-0.35,0.04-0.53,0.09c0.2-0.97,0.29-1.99,0.29-3.05c0-0.15,0-0.3-0.02-0.45c-0.2-7.55-5.82-13.61-12.72-13.61
			c-1.25,0-2.47,0.19-3.63,0.58c-0.04,0-0.08,0.02-0.12,0.02c-0.1,0.04-0.22,0.09-0.31,0.13c-1.88,0.69-3.59,1.86-4.96,3.37
			c-1.37-1.51-3.08-2.68-4.96-3.37c-0.1-0.04-0.22-0.09-0.31-0.13c-1.2-0.39-2.45-0.61-3.74-0.61c-3.78,0-7.19,1.82-9.5,4.72
			c-2.02,2.49-3.23,5.75-3.23,9.35c0,1.04,0.1,2.06,0.29,3.03c-0.18-0.04-0.35-0.06-0.53-0.09c-2.33-0.41-4.7-0.69-7.09-0.87
			c-1.57-0.11-3.16-0.19-4.74-0.22c-0.02-0.04-0.04-0.11-0.06-0.15c-0.12-0.37-0.22-0.71-0.31-1.06c-0.1-0.37-0.2-0.71-0.27-1.08
			c-0.1-0.37-0.18-0.74-0.24-1.1c-0.08-0.37-0.14-0.74-0.18-1.12c-0.06-0.37-0.1-0.74-0.14-1.12c-0.04-0.39-0.06-0.78-0.08-1.15
			c-0.02-0.39-0.02-0.78-0.02-1.17c0-0.41,0-0.8,0.02-1.17c0.02-0.39,0.04-0.78,0.08-1.17c0.04-0.37,0.08-0.76,0.14-1.12
			c0.04-0.39,0.1-0.76,0.18-1.12c0.06-0.37,0.14-0.74,0.24-1.1c0.08-0.37,0.18-0.71,0.27-1.08c0.1-0.35,0.2-0.69,0.31-1.04
			c0.12-0.37,0.24-0.69,0.37-1.04c0.14-0.35,0.27-0.67,0.41-1.02c0.14-0.32,0.29-0.65,0.45-0.97c0.16-0.32,0.33-0.63,0.51-0.95
			c0.16-0.3,0.33-0.63,0.53-0.93c0.18-0.28,0.37-0.58,0.57-0.89c0.2-0.28,0.41-0.56,0.61-0.84c0.22-0.28,0.43-0.56,0.65-0.82
			c0.1-0.13,0.2-0.24,0.29-0.35c0.14-0.15,0.25-0.3,0.39-0.45c0.24-0.26,0.47-0.5,0.73-0.76c0.24-0.24,0.49-0.48,0.74-0.71
			c0.25-0.22,0.51-0.45,0.76-0.67c0.27-0.22,0.55-0.43,0.8-0.63c0.24-0.19,0.51-0.37,0.74-0.52c0.04-0.02,0.06-0.04,0.1-0.06
			c0.29-0.19,0.57-0.39,0.86-0.56c0.29-0.17,0.59-0.35,0.88-0.5c0.31-0.15,0.61-0.3,0.92-0.45c0.16-0.09,0.31-0.15,0.47-0.22
			c0.14-0.06,0.29-0.13,0.47-0.19c0.31-0.13,0.63-0.24,0.94-0.35c0.33-0.11,0.65-0.22,0.98-0.3c0.33-0.11,0.67-0.19,1-0.26
			c0.33-0.09,0.67-0.15,1.02-0.19c0.33-0.06,0.69-0.11,1.02-0.15c0.35-0.04,0.71-0.06,1.06-0.09c0.33-0.02,0.69-0.02,1.06-0.02
			c0.35,0,0.71,0,1.06,0.02c0.33,0.02,0.69,0.04,1.04,0.09c0.35,0.04,0.69,0.09,1.02,0.15c0.35,0.04,0.69,0.11,1.02,0.19
			c0.33,0.06,0.67,0.15,1,0.26c0.33,0.09,0.65,0.19,0.98,0.3c0.31,0.11,0.63,0.22,0.96,0.35c0.31,0.13,0.63,0.26,0.92,0.41
			c0.31,0.15,0.61,0.3,0.92,0.45c0.29,0.15,0.59,0.32,0.88,0.5c0.29,0.17,0.59,0.37,0.86,0.56c0.27,0.17,0.57,0.37,0.84,0.58
			c0.27,0.19,0.53,0.41,0.8,0.63c0.25,0.22,0.51,0.45,0.76,0.67c0.25,0.24,0.51,0.48,0.76,0.71c0.14,0.15,0.29,0.3,0.43,0.45
			c0.1,0.11,0.18,0.19,0.27,0.3c0.1-0.11,0.18-0.19,0.27-0.3c0.14-0.15,0.29-0.3,0.43-0.45c0.25-0.24,0.51-0.48,0.76-0.71
			c0.25-0.22,0.51-0.45,0.76-0.67c0.27-0.22,0.53-0.43,0.8-0.63c0.27-0.22,0.57-0.41,0.84-0.58c0.27-0.19,0.57-0.39,0.86-0.56
			c0.29-0.17,0.59-0.35,0.88-0.5c0.31-0.15,0.61-0.3,0.92-0.45c0.29-0.15,0.61-0.28,0.92-0.41c0.33-0.13,0.65-0.24,0.96-0.35
			c0.33-0.11,0.65-0.22,0.98-0.3c0.33-0.11,0.67-0.19,1-0.26c0.33-0.09,0.67-0.15,1.02-0.19c0.16-0.02,0.29-0.04,0.45-0.06
			c0.18-0.04,0.37-0.06,0.57-0.09c0.35-0.04,0.71-0.06,1.04-0.09c0.35-0.02,0.71-0.02,1.06-0.02c0.37,0,0.73,0,1.06,0.02
			c0.35,0.02,0.71,0.04,1.06,0.09c0.33,0.04,0.69,0.09,1.02,0.15c0.35,0.04,0.69,0.11,1.02,0.19c0.33,0.06,0.67,0.15,1,0.26
			c0.33,0.09,0.65,0.19,0.98,0.3c0.31,0.11,0.63,0.22,0.94,0.35c0.16,0.06,0.31,0.13,0.45,0.19c0.18,0.06,0.33,0.13,0.49,0.22
			c0.31,0.15,0.61,0.3,0.92,0.45c0.29,0.15,0.59,0.32,0.88,0.5c0.29,0.17,0.57,0.37,0.86,0.56c0.27,0.17,0.57,0.37,0.84,0.58
			c0.25,0.19,0.53,0.41,0.8,0.63c0.25,0.22,0.51,0.45,0.76,0.67c0.25,0.24,0.51,0.48,0.74,0.71c0.25,0.26,0.49,0.5,0.73,0.76
			c0.14,0.15,0.25,0.3,0.39,0.45c0.1,0.11,0.2,0.22,0.29,0.35c0.22,0.26,0.43,0.54,0.65,0.82c0.2,0.28,0.41,0.56,0.61,0.84
			c0.2,0.3,0.39,0.61,0.57,0.89c0.2,0.3,0.37,0.63,0.53,0.93c0.18,0.32,0.35,0.63,0.51,0.95c0.16,0.32,0.31,0.65,0.45,0.97
			c0.14,0.35,0.27,0.67,0.41,1.02c0.14,0.35,0.25,0.67,0.37,1.04c0.12,0.35,0.22,0.69,0.31,1.04c0.1,0.37,0.2,0.71,0.27,1.08
			c0.1,0.37,0.18,0.74,0.24,1.1c0.08,0.37,0.14,0.74,0.18,1.12c0.06,0.37,0.1,0.76,0.14,1.12c0.04,0.39,0.06,0.78,0.08,1.17
			C85.07,46.21,85.07,46.6,85.07,47.01z"/>
		<line class="st3" x1="49.95" y1="30.94" x2="49.95" y2="57.68"/>
	</g>
	<g id="Nose_and_eyes">
		<path class="st4" d="M54.85,63.09c-0.16,7.21-9.64,7.21-9.8,0C45.21,55.88,54.68,55.88,54.85,63.09z"/>
		<ellipse class="st4" cx="58.1" cy="49.03" rx="2.94" ry="3.24"/>
		<ellipse class="st4" cx="41.8" cy="49.03" rx="2.94" ry="3.24"/>
		<ellipse class="st5" cx="47.99" cy="60.93" rx="1.96" ry="2.16"/>
		<ellipse class="st5" cx="57.12" cy="47.96" rx="0.98" ry="1.08"/>
		<ellipse class="st5" cx="40.82" cy="47.95" rx="0.98" ry="1.08"/>
	</g>
</g>
</svg>
